<svg width="320" height="320" viewBox="0 0 320 320" fill="none" xmlns="http://www.w3.org/2000/svg">
<path d="M179.705 216.369L184.431 208.931C195.793 191.049 221.14 188.329 233.956 203.617L263.398 238.737" stroke="#888888" stroke-width="10" stroke-linecap="round" stroke-linejoin="round"/>
<path d="M39.9398 221.245L98.0381 187.581C107.944 181.841 119.999 182.118 128.796 188.286L214.12 248.113" stroke="#888888" stroke-width="10" stroke-linecap="round" stroke-linejoin="round"/>
<path d="M223.817 40.8066C223.556 40.7035 222.275 40.0943 221.012 39.4601C212.858 35.5235 201.728 34.9055 191.62 37.7746C172.514 43.2339 156.896 60.2846 152.767 80.183C150.5 91.08 152.067 103.1 156.898 112.107C161.237 120.266 169.628 127.085 179.035 130.178C191.451 134.204 207.47 131.326 219.357 122.857C221.082 121.634 222.57 120.692 222.683 120.768C222.768 120.825 222.661 121.636 222.456 122.527C221.236 127.144 221.285 134.239 222.563 139.628C225.565 152.215 234.832 161.539 246.755 163.944C251.076 164.845 253.771 164.977 257.966 164.506C276.625 162.496 293.036 146.754 296.323 127.647C297.385 121.524 297.246 116.649 295.791 110.737C294.532 105.618 292.546 101.663 289.351 97.7722C286.313 94.1343 281.591 90.6444 277.161 88.8239C267.986 85.0415 256.657 85.7234 246.957 90.634C245.265 91.5115 243.377 92.5507 242.83 92.9167C242.295 93.3269 241.745 93.5796 241.66 93.5223C241.547 93.4458 241.846 91.8825 242.382 90.0385C243.541 85.7474 244.24 77.578 243.838 73.26C242.769 62.0179 237.978 52.1188 230.382 45.4706C228.578 43.8817 224.984 41.3393 223.817 40.8066ZM229.673 51.206C233.718 55.4883 237.288 62.7222 238.307 68.7816C241.181 85.254 234.973 102.347 221.677 114.57C211.246 124.172 196.96 128.921 184.748 126.872C183.03 126.592 183.091 126.265 184.892 125.829C187.019 125.283 190.621 123.454 192.808 121.808C195.19 119.999 199.024 115.092 200.378 112.073C202.54 107.357 203.079 102.463 201.979 97.8929C201.267 95.094 199.937 92.4655 198.333 90.8282C197.635 90.0985 197.629 90.1676 198.193 91.9841C198.988 94.5448 198.606 96.8242 196.983 99.5136C194.277 103.935 189.327 105.55 185.794 103.159C182.233 100.749 181.994 95.6588 185.225 91.5566C187.188 89.0968 189.209 87.9267 191.919 87.7378C193.841 87.6046 193.904 87.5737 192.963 87.194C189.504 85.7723 183.784 85.9838 179.783 87.7268C174.924 89.8078 171.541 92.8143 168.383 97.8857C165.179 102.963 164.024 107.845 164.761 113.235C165.153 116.075 165.023 116.024 162.567 112.266C160.172 108.659 158.834 105.326 157.714 100.486C156.147 93.5406 156.244 87.1329 158.057 79.7537C162.258 62.7363 175.422 48.2542 191.746 42.7882C201.208 39.5923 212.095 40.0824 220.129 44.0115C222.814 45.3506 227.462 48.8272 229.673 51.206ZM284.736 99.5032C292.872 108.54 294.342 121.893 288.736 135.495C287.096 139.461 281.841 146.827 278.555 149.753C272.261 155.386 265.809 158.56 258.408 159.693C254.775 160.251 251.811 160.267 248.706 159.71C246.988 159.431 243.387 158.391 243.509 158.216C243.544 158.166 244.657 158 245.993 157.874C252.248 157.253 258.768 151.772 261.17 145.159C262.805 140.602 262.484 135.272 260.35 131.768C259.048 129.637 258.302 129.095 258.841 130.71C259.886 133.808 258.029 137.847 254.781 139.585C249.956 142.094 245.545 138.336 247.087 133.017C247.956 130.038 250.469 127.803 253.462 127.328L255.004 127.084L254.034 126.685C251.312 125.578 246.814 126.065 243.247 127.844C235.32 131.821 230.764 140.691 232.587 148.581C232.787 149.489 232.869 150.207 232.76 150.243C232.275 150.283 228.996 144.423 228.121 141.918C225.689 134.902 226.039 125.981 229.135 117.595C230.315 114.348 230.729 113.635 234.089 108.811C238.152 102.917 239.769 101.253 244.553 97.9072C252.741 92.1211 261.985 89.9547 270.736 91.7206C274.574 92.4792 276.644 93.3284 280.036 95.6237C282.229 97.0715 283.481 98.1395 284.736 99.5032Z" fill="#888888"/>
<path d="M35 100.595L35.6483 246.36C35.7478 268.712 54.1433 287.04 76.4879 287.049L149.47 287.079" stroke="#888888" stroke-width="15" stroke-linejoin="round"/>
<path d="M91.5186 286.674L226.635 288.11C249.166 288.35 267.774 269.947 267.774 247.426L267.774 177.5" stroke="#888888" stroke-width="15" stroke-linecap="round" stroke-linejoin="round"/>
<path d="M145 54.6443L75.9998 54.516C53.544 54.4743 35.0484 72.9454 35.0484 95.4134L35.0484 246.851" stroke="#888888" stroke-width="15" stroke-linecap="round" stroke-linejoin="round"/>
</svg>
